<?xml version="1.0" encoding="UTF-8"?>
<svg xmlns="http://www.w3.org/2000/svg" width="2500" height="843" viewBox="0 0 2500 843" fill="none">
  <defs>
    <linearGradient id="canvas-bg" x1="0" y1="0" x2="2500" y2="843" gradientUnits="userSpaceOnUse">
      <stop stop-color="#ffffff"/>
      <stop offset="1" stop-color="#eef4fb"/>
    </linearGradient>
    <linearGradient id="col1-bg" x1="50" y1="50" x2="850" y2="793" gradientUnits="userSpaceOnUse">
      <stop stop-color="#aed8f0"/>
      <stop offset="1" stop-color="#e3f2fb"/>
    </linearGradient>
    <linearGradient id="col2-bg" x1="850" y1="50" x2="1650" y2="793" gradientUnits="userSpaceOnUse">
      <stop stop-color="#ffffff"/>
      <stop offset="1" stop-color="#fafafa"/>
    </linearGradient>
    <linearGradient id="col3-bg" x1="1650" y1="50" x2="2450" y2="793" gradientUnits="userSpaceOnUse">
      <stop stop-color="#f4f4f5"/>
      <stop offset="1" stop-color="#e8eaee"/>
    </linearGradient>
  </defs>

  <rect width="2500" height="843" fill="url(#canvas-bg)"/>

  <rect x="50" y="50" width="800" height="743" fill="url(#col1-bg)"/>
  <rect x="850" y="50" width="800" height="743" fill="url(#col2-bg)"/>
  <rect x="1650" y="50" width="800" height="743" fill="url(#col3-bg)"/>

  <rect x="50" y="50" width="800" height="743" fill="none" stroke="#1d4ed8" stroke-width="5.5" opacity="0.72"/>
  <rect x="50" y="50" width="11" height="743" fill="#1e40af"/>

  <line x1="850" y1="50" x2="850" y2="793" stroke="#94a3b8" stroke-width="3.5"/>
  <line x1="1650" y1="50" x2="1650" y2="793" stroke="#94a3b8" stroke-width="3.5"/>

  <!-- Left: reservation + check -->
  <g transform="translate(450 302)" aria-hidden="true">
    <g transform="translate(0 3) scale(1.88) translate(0 -3)">
      <rect x="-58" y="-38" width="116" height="96" rx="12" fill="#ffffff" stroke="#1d4ed8" stroke-width="4"/>
      <line x1="-58" y1="-12" x2="58" y2="-12" stroke="#1d4ed8" stroke-width="4"/>
      <line x1="-32" y1="-52" x2="-32" y2="-38" stroke="#1d4ed8" stroke-width="6.5" stroke-linecap="round"/>
      <line x1="32" y1="-52" x2="32" y2="-38" stroke="#1d4ed8" stroke-width="6.5" stroke-linecap="round"/>
      <path d="M -22 32 L -5 48 L 30 15" stroke="#1d4ed8" stroke-width="6" stroke-linecap="round" stroke-linejoin="round" fill="none"/>
    </g>
  </g>

  <!-- Center: neutral list + yen -->
  <g transform="translate(1250 320)" aria-hidden="true">
    <g transform="translate(0 -15) scale(1.88) translate(0 15)">
      <circle cx="40" cy="-46" r="30" fill="#f3f4f6" stroke="#64748b" stroke-width="3.2"/>
      <text x="40" y="-34" text-anchor="middle" font-family="SF Pro Display, Helvetica Neue, Arial, sans-serif" font-size="38" font-weight="800" fill="#475569">&#x00a5;</text>
      <circle cx="-42" cy="-26" r="7.5" stroke="#64748b" stroke-width="3" fill="#ffffff"/>
      <line x1="-28" y1="-26" x2="48" y2="-26" stroke="#64748b" stroke-width="3.6" stroke-linecap="round"/>
      <circle cx="-42" cy="6" r="7.5" stroke="#64748b" stroke-width="3" fill="#ffffff"/>
      <line x1="-28" y1="6" x2="48" y2="6" stroke="#64748b" stroke-width="3.6" stroke-linecap="round"/>
      <circle cx="-42" cy="38" r="7.5" stroke="#64748b" stroke-width="3" fill="#ffffff"/>
      <line x1="-28" y1="38" x2="40" y2="38" stroke="#64748b" stroke-width="3.6" stroke-linecap="round"/>
    </g>
  </g>

  <!-- Right: calm Q&A -->
  <g transform="translate(2050 283)" aria-hidden="true">
    <g transform="translate(-6 22) scale(1.88) translate(6 -22)">
      <path d="M -64 -28 H 54 C 62 -28 68 -22 68 -14 V 36 C 68 44 62 48 54 48 H 4 L -18 72 L -18 48 H -64 C -74 48 -80 44 -80 36 V -14 C -80 -22 -74 -28 -64 -28 Z" fill="#fafafa" stroke="#78716c" stroke-width="3.8" stroke-linejoin="round"/>
      <text x="-8" y="22" text-anchor="middle" font-family="'Noto Sans JP', sans-serif" font-size="50" font-weight="900" fill="#57534e">&#xff1f;</text>
      <rect x="28" y="46" width="34" height="26" rx="5" fill="#e7e5e4" stroke="#a8a29e" stroke-width="2.2"/>
      <text x="45" y="65" text-anchor="middle" font-family="SF Pro Display, Helvetica Neue, Arial, sans-serif" font-size="19" font-weight="800" fill="#57534e">Q</text>
    </g>
  </g>

  <!-- Left column copy -->
  <text x="450" y="508" text-anchor="middle" font-family="'Hiragino Sans','Hiragino Kaku Gothic ProN','Noto Sans JP',sans-serif" font-size="62" font-weight="800" fill="#050a14" stroke="#ffffff" stroke-width="3.2" paint-order="stroke fill" letter-spacing="0.02em">&#x4eca;&#x3059;&#x3050;&#x4e88;&#x7d04;</text>
  <text x="450" y="584" text-anchor="middle" font-family="'Hiragino Sans','Hiragino Kaku Gothic ProN','Noto Sans JP',sans-serif" font-size="43" font-weight="800" fill="#0f172a" stroke="#ffffff" stroke-width="2.7" paint-order="stroke fill" letter-spacing="0.02em">&#x521d;&#x56de;1,900&#x5186;&#xff08;&#x4eba;&#x6570;&#x9650;&#x5b9a;&#xff09;</text>
  <text x="450" y="642" text-anchor="middle" font-family="'Hiragino Sans','Hiragino Kaku Gothic ProN','Noto Sans JP',sans-serif" font-size="32" font-weight="700" fill="#475569" stroke="#ffffff" stroke-width="1.5" paint-order="stroke fill" letter-spacing="0.015em">&#x6700;&#x77ed;30&#x79d2;&#x3067;&#x5b8c;&#x4e86;</text>

  <!-- Center: comparison -->
  <text x="1250" y="508" text-anchor="middle" font-family="'Hiragino Sans','Hiragino Kaku Gothic ProN','Noto Sans JP',sans-serif" font-size="62" font-weight="800" fill="#0b1220" stroke="#ffffff" stroke-width="3.2" paint-order="stroke fill" letter-spacing="0.025em">&#x6599;&#x91d1;&#x30fb;&#x30e1;&#x30cb;&#x30e5;&#x30fc;</text>
  <text x="1250" y="596" text-anchor="middle" font-family="'Hiragino Sans','Hiragino Kaku Gothic ProN','Noto Sans JP',sans-serif" font-size="28" font-weight="700" fill="#374151" stroke="#ffffff" stroke-width="1.4" paint-order="stroke fill" letter-spacing="0.04em">&#x8a73;&#x3057;&#x304f;&#x898b;&#x308b;</text>

  <!-- Right: reassurance -->
  <text x="2050" y="508" text-anchor="middle" font-family="'Hiragino Sans','Hiragino Kaku Gothic ProN','Noto Sans JP',sans-serif" font-size="62" font-weight="800" fill="#374151" stroke="#ffffff" stroke-width="3.2" paint-order="stroke fill" letter-spacing="0.02em">&#x521d;&#x3081;&#x3066;&#x306e;&#x65b9;&#x3078;</text>
  <text x="2050" y="596" text-anchor="middle" font-family="'Hiragino Sans','Hiragino Kaku Gothic ProN','Noto Sans JP',sans-serif" font-size="26" font-weight="700" fill="#6b7280" stroke="#ffffff" stroke-width="1.25" paint-order="stroke fill" letter-spacing="0.025em">&#x4e0d;&#x5b89;&#x30fb;&#x7591;&#x554f;&#x3092;&#x89e3;&#x6d88;</text>
</svg>
