<?xml version="1.0" encoding="UTF-8"?>
<svg width="960" height="640" viewBox="0 0 960 640" fill="none" xmlns="http://www.w3.org/2000/svg">
  <defs>
    <linearGradient id="bg" x1="0" y1="0" x2="960" y2="640" gradientUnits="userSpaceOnUse">
      <stop stop-color="#ffffff"/>
      <stop offset="1" stop-color="#dbeafe"/>
    </linearGradient>
    <linearGradient id="blue" x1="220" y1="80" x2="760" y2="560" gradientUnits="userSpaceOnUse">
      <stop stop-color="#60a5fa"/>
      <stop offset="1" stop-color="#2563eb"/>
    </linearGradient>
    <filter id="shadow" x="80" y="40" width="800" height="560" filterUnits="userSpaceOnUse" color-interpolation-filters="sRGB">
      <feDropShadow dx="0" dy="18" stdDeviation="24" flood-color="#2563eb" flood-opacity="0.14"/>
    </filter>
  </defs>
  <rect width="960" height="640" rx="40" fill="url(#bg)"/>
  <circle cx="812" cy="72" r="170" fill="#eff6ff"/>
  <circle cx="110" cy="560" r="210" fill="#bfdbfe" opacity="0.35"/>
  <g filter="url(#shadow)">
    <rect x="130" y="90" width="700" height="460" rx="36" fill="white"/>
  </g>
  <text x="480" y="160" text-anchor="middle" font-family="Hiragino Sans, Noto Sans JP, sans-serif" font-size="34" font-weight="700" fill="#0f172a">選ばれる理由</text>
  
  <path d="M365 265c35-58 97-76 143-38 44-38 106-20 143 38 52 82-19 181-143 243-124-62-195-161-143-243Z" fill="#eff6ff" stroke="url(#blue)" stroke-width="12"/>
  <path d="M421 339c24 36 51 54 87 54s63-18 87-54" stroke="#2563eb" stroke-width="14" stroke-linecap="round"/>
  <circle cx="432" cy="303" r="12" fill="#2563eb"/><circle cx="584" cy="303" r="12" fill="#2563eb"/>
  <text x="480" y="505" text-anchor="middle" font-family="Hiragino Sans, Noto Sans JP, sans-serif" font-size="24" font-weight="700" fill="#2563eb">納得してから選べるサロン</text>
</svg>