<?xml version="1.0" encoding="UTF-8"?>
<svg width="960" height="640" viewBox="0 0 960 640" fill="none" xmlns="http://www.w3.org/2000/svg">
  <defs>
    <linearGradient id="bg" x1="0" y1="0" x2="960" y2="640" gradientUnits="userSpaceOnUse">
      <stop stop-color="#ffffff"/>
      <stop offset="1" stop-color="#dbeafe"/>
    </linearGradient>
    <linearGradient id="blue" x1="220" y1="80" x2="760" y2="560" gradientUnits="userSpaceOnUse">
      <stop stop-color="#60a5fa"/>
      <stop offset="1" stop-color="#2563eb"/>
    </linearGradient>
    <filter id="shadow" x="80" y="40" width="800" height="560" filterUnits="userSpaceOnUse" color-interpolation-filters="sRGB">
      <feDropShadow dx="0" dy="18" stdDeviation="24" flood-color="#2563eb" flood-opacity="0.14"/>
    </filter>
  </defs>
  <rect width="960" height="640" rx="40" fill="url(#bg)"/>
  <circle cx="812" cy="72" r="170" fill="#eff6ff"/>
  <circle cx="110" cy="560" r="210" fill="#bfdbfe" opacity="0.35"/>
  <g filter="url(#shadow)">
    <rect x="130" y="90" width="700" height="460" rx="36" fill="white"/>
  </g>
  <text x="480" y="160" text-anchor="middle" font-family="Hiragino Sans, Noto Sans JP, sans-serif" font-size="34" font-weight="700" fill="#0f172a">店舗情報</text>
  
  <rect x="275" y="245" width="410" height="230" rx="28" fill="#eff6ff" stroke="#93c5fd" stroke-width="4"/>
  <path d="M310 330l170-70 170 70v118H310V330Z" fill="white" stroke="#2563eb" stroke-width="8" stroke-linejoin="round"/>
  <rect x="430" y="374" width="100" height="74" rx="12" fill="#dbeafe" stroke="#2563eb" stroke-width="6"/>
  <path d="M480 190c55 0 100 43 100 96 0 74-100 153-100 153s-100-79-100-153c0-53 45-96 100-96Z" fill="url(#blue)" opacity="0.95"/>
  <circle cx="480" cy="286" r="32" fill="white"/>
</svg>